<?xml version="1.0" encoding="utf-8"?>
<!-- Generator: Adobe Illustrator 26.0.1, SVG Export Plug-In . SVG Version: 6.00 Build 0)  -->
<svg version="1.1" id="Layer_1" xmlns="http://www.w3.org/2000/svg" xmlns:xlink="http://www.w3.org/1999/xlink" x="0px" y="0px"
	 viewBox="0 0 219 171" style="enable-background:new 0 0 219 171;" xml:space="preserve">
<style type="text/css">
	.st0{fill:#10357F;}
	.st1{fill:none;stroke:#CFD0CF;stroke-width:0.5;stroke-miterlimit:10;}
	.st2{fill:url(#Shape_00000139275874575396124430000009920577918823909800_);}
	.st3{fill:url(#Shape-2_00000067940866908330737210000007830140080571642522_);}
	.st4{fill:url(#Shape-3_00000002364173472132998550000016292981600757107355_);}
	.st5{fill:url(#Shape-4_00000092416229378200169770000013847072805474436020_);}
	.st6{fill:url(#Shape-5_00000175308573422261734970000014097251934941536438_);}
	.st7{fill:#7E72B3;}
	.st8{fill:#E10814;}
	.st9{fill:#229FDA;}
	.st10{fill:#FF5F00;}
	.st11{fill:#EB001B;}
	.st12{fill:#F79E1B;}
	.st13{fill-rule:evenodd;clip-rule:evenodd;fill:#231F20;}
	.st14{fill:none;}
	.st15{fill-rule:evenodd;clip-rule:evenodd;fill:#252122;}
	.st16{fill:url(#SVGID_1_);}
	.st17{fill-rule:evenodd;clip-rule:evenodd;}
	.st18{fill:#E6E6E6;stroke:#000000;stroke-width:0.5;stroke-miterlimit:10;}
	.st19{fill-rule:evenodd;clip-rule:evenodd;fill:#004C97;}
	.st20{fill-rule:evenodd;clip-rule:evenodd;fill:#FEFEFE;}
	.st21{fill:#306FC5;stroke:#CFD0CF;stroke-width:0.5;stroke-miterlimit:10;}
	.st22{fill:#FFFFFF;}
</style>
<path class="st0" d="M82.0565,22.4334l-3.2885,8.3285l-1.3328-7.0814c-0.111-0.7179-0.7291-1.2476-1.4556-1.2471h-5.3922
	l-0.0728,0.3543c1.0791,0.2177,2.1275,0.567,3.1217,1.04c0.4206,0.2044,0.7045,0.6132,0.749,1.0788l2.5265,9.7633h3.3466
	l5.1278-12.2364L82.0565,22.4334z"/>
<polygon class="st0" points="86.7414,22.432 84.124,34.668 87.2902,34.668 89.9008,22.432 "/>
<path class="st0" d="M94.0568,25.8252c0.0098-0.4383,0.4287-0.9042,1.3426-1.0282c1.0708-0.0991,2.1487,0.0903,3.1217,0.5483
	l0.5548-2.5881c-0.9464-0.3564-1.9487-0.541-2.96-0.5451c-3.13,0-5.3281,1.6661-5.3508,4.0439
	c-0.0162,1.7581,1.5739,2.7497,2.7709,3.3288c1.2341,0.5985,1.6498,0.9818,1.6417,1.5223c0,0.8216-0.9834,1.1807-1.8909,1.1937
	c-1.1323,0.025-2.252-0.2401-3.2528-0.77l-0.5709,2.6802c1.1225,0.4353,2.3173,0.6549,3.5212,0.6471
	c3.3192,0,5.4996-1.645,5.4996-4.1861c0.0134-3.2351-4.4644-3.4081-4.4334-4.8526"/>
<path class="st0" d="M103.2199,30.3361l1.6826-4.5953l0.9462,4.5953H103.2199z M104.4217,22.433
	c-0.5912-0.0059-1.1259,0.35-1.3487,0.8976l-4.7474,11.3373h3.3251l0.6599-1.8277h4.0437l0.3801,1.8277h2.9342l-2.544-12.2345
	L104.4217,22.433z"/>
<path class="st1" d="M71.3088,15.3933h37.5652c1.4267,0,2.5833,1.1566,2.5833,2.5833V38.182c0,1.4267-1.1566,2.5833-2.5833,2.5833
	H71.3088c-1.4267,0-2.5833-1.1566-2.5833-2.5833V17.9766C68.7255,16.5499,69.8821,15.3933,71.3088,15.3933z"/>
<path class="st1" d="M90.5341,130.2348h37.5652c1.4267,0,2.5833,1.1566,2.5833,2.5833v20.2054c0,1.4267-1.1566,2.5833-2.5833,2.5833
	H90.5341c-1.4267,0-2.5833-1.1566-2.5833-2.5833v-20.2054C87.9508,131.3913,89.1074,130.2348,90.5341,130.2348z"/>
<path class="st1" d="M17.94,130.2348h37.5652c1.4267,0,2.5833,1.1566,2.5833,2.5833v20.2054c0,1.4267-1.1566,2.5833-2.5833,2.5833
	H17.94c-1.4267,0-2.5833-1.1566-2.5833-2.5833v-20.2054C15.3567,131.3913,16.5133,130.2348,17.94,130.2348z"/>
<path class="st1" d="M144.7997,15.3933h37.5652c1.4267,0,2.5833,1.1566,2.5833,2.5833V38.182c0,1.4267-1.1566,2.5833-2.5833,2.5833
	h-37.5652c-1.4267,0-2.5833-1.1566-2.5833-2.5833V17.9766C142.2165,16.5499,143.373,15.3933,144.7997,15.3933z"/>
<g id="jcb">
	<g id="Group">
		
			<linearGradient id="Shape_00000042719650298765593650000016039949065684741776_" gradientUnits="userSpaceOnUse" x1="-362.3043" y1="-591.4152" x2="-361.8074" y2="-591.4152" gradientTransform="matrix(17.433 0 0 10.803 6485.0791 6418.6338)">
			<stop  offset="0" style="stop-color:#00763C"/>
			<stop  offset="0.2285" style="stop-color:#00843B"/>
			<stop  offset="0.7433" style="stop-color:#4DA534"/>
			<stop  offset="1" style="stop-color:#65B32E"/>
		</linearGradient>
		<path id="Shape" style="fill:url(#Shape_00000042719650298765593650000016039949065684741776_);" d="M170.6703,30.4998h2.0298
			c0.0811-0.0009,0.1618-0.0087,0.2417-0.0231c0.4978-0.1176,0.806-0.6167,0.6884-1.1144
			c-0.0806-0.3412-0.3471-0.6077-0.6884-0.6884c-0.0798-0.0143-0.1606-0.022-0.2417-0.0234h-2.0298V30.4998z"/>
		
			<linearGradient id="Shape-2_00000093145860203768493810000016402024810358845830_" gradientUnits="userSpaceOnUse" x1="-377.9499" y1="-643.0043" x2="-377.7783" y2="-643.0043" gradientTransform="matrix(50.504 0 0 122.841 19257.0117 79015.5156)">
			<stop  offset="0" style="stop-color:#00763C"/>
			<stop  offset="0.2285" style="stop-color:#00843B"/>
			<stop  offset="0.7433" style="stop-color:#4DA534"/>
			<stop  offset="1" style="stop-color:#65B32E"/>
		</linearGradient>
		<path id="Shape-2" style="fill:url(#Shape-2_00000093145860203768493810000016402024810358845830_);" d="M172.4618,17.708
			c-1.936,0.0003-3.5053,1.5697-3.5053,3.5057v3.6402h4.9604c0.1151,0,0.2559,0.008,0.3436,0.0134
			c1.1225,0.0562,1.9496,0.6322,1.9496,1.6336c-0.028,0.8717-0.7243,1.5739-1.5958,1.6091v0.0401
			c1.138,0.0793,2.0088,0.7051,2.0088,1.6918c0,1.0659-0.9561,1.7517-2.2301,1.7517h-5.4368v7.1462h5.1412
			c1.936,0.0004,3.5059-1.5688,3.5063-3.5048V17.708H172.4618z"/>
		
			<linearGradient id="Shape-3_00000021079973139659109050000006482263783042911874_" gradientUnits="userSpaceOnUse" x1="-360.1898" y1="-585.3093" x2="-359.6495" y2="-585.3093" gradientTransform="matrix(16.032 0 0 9.969 5943.5918 5861.7021)">
			<stop  offset="0" style="stop-color:#00763C"/>
			<stop  offset="0.2285" style="stop-color:#00843B"/>
			<stop  offset="0.7433" style="stop-color:#4DA534"/>
			<stop  offset="1" style="stop-color:#65B32E"/>
		</linearGradient>
		<path id="Shape-3" style="fill:url(#Shape-3_00000021079973139659109050000006482263783042911874_);" d="M173.4152,26.7545
			c0.0079-0.4168-0.2936-0.775-0.7056-0.8386c-0.0664-0.0087-0.1333-0.0138-0.2003-0.0151h-1.8389v1.7069h1.8389
			c0.067-0.0009,0.1339-0.0061,0.2003-0.0158C173.1214,27.5291,173.4232,27.171,173.4152,26.7545z"/>
	</g>
	
		<linearGradient id="Shape-4_00000167355226522015357570000008164741695773818505_" gradientUnits="userSpaceOnUse" x1="-376.0897" y1="-643.0043" x2="-375.9185" y2="-643.0043" gradientTransform="matrix(50.498 0 0 122.841 19141.4121 79015.5156)">
		<stop  offset="0" style="stop-color:#312B6B"/>
		<stop  offset="0.4751" style="stop-color:#004E90"/>
		<stop  offset="0.8261" style="stop-color:#0066AD"/>
		<stop  offset="1" style="stop-color:#006FB9"/>
	</linearGradient>
	<path id="Shape-4" style="fill:url(#Shape-4_00000167355226522015357570000008164741695773818505_);" d="M153.0663,17.708
		c-1.936,0.0001-3.5055,1.5696-3.5053,3.5056v0.0001v8.6572c0.938,0.4878,1.9743,0.7568,3.0313,0.7865
		c0.9282,0.1039,1.7648-0.5643,1.8687-1.4925c0.0091-0.0808,0.0123-0.1622,0.0096-0.2434v-4.0674h3.0146v4.0671
		c0,1.591-0.977,2.8673-4.3266,2.8673c-1.2124,0.0004-2.4203-0.1458-3.5976-0.4355v7.3874h5.1412
		c1.9359-0.0001,3.5051-1.5696,3.5049-3.5055l0,0V17.708H153.0663z"/>
	
		<linearGradient id="Shape-5_00000035515604007072437170000001042497702814724248_" gradientUnits="userSpaceOnUse" x1="-377.0196" y1="-643.0042" x2="-376.8484" y2="-643.0042" gradientTransform="matrix(50.5 0 0 122.839 19198.8262 79014.2188)">
		<stop  offset="0" style="stop-color:#6E2E2B"/>
		<stop  offset="0.1735" style="stop-color:#882A2D"/>
		<stop  offset="0.5731" style="stop-color:#BD1D32"/>
		<stop  offset="0.8585" style="stop-color:#DA0C38"/>
		<stop  offset="1" style="stop-color:#E4003A"/>
	</linearGradient>
	<path id="Shape-5" style="fill:url(#Shape-5_00000035515604007072437170000001042497702814724248_);" d="M162.7643,17.708
		c-1.9359,0.0004-3.5051,1.5699-3.5052,3.5057v4.5893c1.441-0.9774,3.1961-1.3792,4.9188-1.1261
		c0.9281,0.0585,1.8492,0.1983,2.753,0.4176v1.484c-0.8233-0.4356-1.7265-0.6991-2.6548-0.7745
		c-1.8941-0.1429-3.0332,0.7825-3.0332,2.421s1.1391,2.5628,3.0332,2.4198c0.9277-0.0784,1.8302-0.3415,2.6548-0.7737v1.4823
		c-0.9038,0.2194-1.8249,0.3595-2.753,0.4185c-1.7226,0.2529-3.4776-0.1486-4.9188-1.1254v8.0937h5.1412
		c1.936-0.0001,3.5053-1.5695,3.5055-3.5055V17.708H162.7643z"/>
</g>
<path class="st1" d="M17.94,72.814h37.5652c1.4267,0,2.5833,1.1566,2.5833,2.5833v20.2054c0,1.4267-1.1566,2.5833-2.5833,2.5833
	H17.94c-1.4267,0-2.5833-1.1566-2.5833-2.5833V75.3973C15.3567,73.9706,16.5133,72.814,17.94,72.814z"/>
<g id="Page-1">
	<g id="maestro">
		<rect id="Rectangle-path" x="32.126" y="77.2404" class="st7" width="9.1912" height="16.5189"/>
		<path class="st8" d="M32.7105,85.5001c-0.0029-3.2236,1.4767-6.2693,4.0123-8.2597c-4.5615-3.5866-11.1669-2.7963-14.7535,1.7651
			S19.173,90.1724,23.7344,93.759c3.811,2.9966,9.1775,2.9966,12.9884,0C34.1872,91.7691,32.7075,88.7235,32.7105,85.5001z"/>
		<path id="Shape-6" class="st9" d="M52.7204,92.0111v-0.3389h0.136v-0.0691h-0.3471v0.0691h0.1363v0.3389H52.7204z
			 M53.3936,92.0111v-0.4085h-0.1082l-0.1207,0.2805l-0.1236-0.2805h-0.1065v0.4084h0.0773v-0.3066l0.1145,0.2627h0.0773
			l0.1156-0.2627v0.3071L53.3936,92.0111z"/>
		<path id="Shape-7" class="st9" d="M53.7215,85.5001c0.0008,5.8018-4.7022,10.5058-10.504,10.5064
			c-2.3557,0.0003-4.643-0.7912-6.4948-2.2472c4.5615-3.5839,5.354-10.187,1.7702-14.7486
			c-0.5174-0.6585-1.1117-1.2528-1.7702-1.7702c4.5614-3.586,11.1662-2.7951,14.7521,1.7663
			C52.9304,80.8584,53.7215,83.145,53.7215,85.5001z"/>
	</g>
</g>
<path class="st1" d="M90.5341,72.814h37.5652c1.4267,0,2.5833,1.1566,2.5833,2.5833v20.2054c0,1.4267-1.1566,2.5833-2.5833,2.5833
	H90.5341c-1.4267,0-2.5833-1.1566-2.5833-2.5833V75.3973C87.9508,73.9706,89.1074,72.814,90.5341,72.814z"/>
<rect x="105.3616" y="78.3933" class="st10" width="7.9103" height="14.2134"/>
<g>
	<path class="st11" d="M105.8638,85.5c0.0005-2.7701,1.2678-5.3879,3.4403-7.1067c-3.9249-3.0862-9.6085-2.4061-12.6945,1.5188
		c-3.0862,3.9249-2.4061,9.6085,1.5188,12.6945c3.2791,2.5783,7.8967,2.5783,11.1758,0
		C107.1272,90.8915,105.8588,88.2714,105.8638,85.5z"/>
	<path class="st12" d="M123.9444,85.5c0.0052,4.9876-4.0337,9.0351-9.0213,9.0403c-2.0288,0.0021-3.9994-0.679-5.5938-1.9336
		c3.9249-3.1037,4.5907-8.8014,1.4871-12.7263c-0.4363-0.5518-0.9354-1.0508-1.4871-1.4871
		c3.9197-3.0842,9.5974-2.4069,12.6816,1.5128C123.2653,81.5006,123.9465,83.4712,123.9444,85.5z"/>
</g>
<path class="st13" d="M89.3686,140.2417c0-0.1031,0.0148-0.1405,0.1318-0.1389c0.5996,0.0086,1.1997-0.0083,1.7989,0.0104
	c0.8656-0.0059,1.7009,0.3183,2.3357,0.9068c0.4424,0.4157,0.7385,0.9636,0.8436,1.5616c0.252,1.136-0.1506,2.3178-1.0437,3.0637
	c-0.4944,0.4339-1.1194,0.6904-1.776,0.7286c-0.7358,0.0594-1.4734,0.0121-2.21,0.0282c-0.0881,0.002-0.0784-0.0457-0.0783-0.101
	C89.371,145.6807,89.3723,141.2454,89.3686,140.2417z M90.595,145.2184c0,0.0853,0.0174,0.1126,0.1076,0.1114
	c0.2456-0.0032,0.4917-0.0007,0.7358-0.028c0.4435-0.0243,0.8644-0.2027,1.1903-0.5044c0.5347-0.5046,0.7621-1.2549,0.5977-1.9714
	c-0.1103-0.7314-0.6384-1.3307-1.3503-1.5318c-0.3715-0.0923-0.7545-0.1301-1.1368-0.1123
	c-0.1091-0.0013-0.1469,0.0202-0.1456,0.1399C90.6006,141.9669,90.5986,144.5648,90.595,145.2184z"/>
<path class="st13" d="M126.5793,143.762l1.973,2.6387h-0.2652c-0.3708,0-0.7417-0.0058-1.1122,0.0035
	c-0.0943,0.0076-0.1839-0.0422-0.227-0.1263c-0.514-0.7704-1.0304-1.5392-1.549-2.3062c-0.0077-0.0099-0.0144-0.0204-0.02-0.0316
	c-0.0312-0.0768-0.0984-0.0717-0.158-0.0594c-0.0657,0.0134-0.0343,0.0752-0.0345,0.114c-0.002,0.754-0.0048,1.508,0.0019,2.2621
	c0.0011,0.1253-0.0361,0.1497-0.1526,0.1469c-0.3248-0.0083-0.6499-0.0053-0.9748-0.0012
	c-0.0819,0.0011-0.1152-0.0134-0.1151-0.1068c0.0028-2.0288,0.0032-4.0576,0.0011-6.0866c0-0.0688,0.0073-0.1059,0.0924-0.1042
	c0.6993,0.0147,1.3997-0.0279,2.0983,0.0258c0.4817,0.0148,0.9444,0.1906,1.3145,0.4992c0.4098,0.3809,0.6119,0.9354,0.543,1.4907
	c0.0031,0.7844-0.5528,1.46-1.3232,1.6078C126.6429,143.7353,126.6166,143.7476,126.5793,143.762z M125.1844,142.0561
	c0,0.2786,0.0049,0.5572-0.0027,0.8357c-0.0028,0.0976,0.0282,0.1168,0.1178,0.1131c0.1827-0.0075,0.3652-0.0035,0.5475-0.0227
	c0.4901-0.009,0.8817-0.4106,0.8783-0.9008c0.0491-0.4045-0.2055-0.7839-0.5985-0.8918c-0.2695-0.0694-0.5479-0.0977-0.8259-0.0843
	c-0.0908-0.0017-0.1217,0.018-0.1193,0.1151c0.0068,0.2782,0.0021,0.5569,0.0021,0.8354L125.1844,142.0561z"/>
<path class="st13" d="M119.664,140.2285c0-0.0944,0.019-0.1253,0.1202-0.1249c1.083,0.0041,2.166,0.0043,3.2489,0.0007
	c0.0843,0,0.1147,0.0163,0.1128,0.1076c-0.0061,0.2914-0.0061,0.5829,0,0.8746c0.0019,0.0879-0.0307,0.0996-0.1068,0.0992
	c-0.6706-0.0025-1.3412,0.0017-2.0117-0.0044c-0.114-0.0011-0.1367,0.032-0.1349,0.139c0.0067,0.379,0.0059,0.7581,0,1.1371
	c-0.0015,0.0947,0.0251,0.1176,0.118,0.1171c0.6456-0.0041,1.2913,0,1.9363-0.0049c0.102-0.0008,0.1217,0.0306,0.1202,0.1242
	c-0.0059,0.279-0.0059,0.5579,0,0.8371c0.0019,0.0881-0.0232,0.1092-0.1099,0.1087c-0.641-0.0039-1.2829,0.0013-1.9243-0.0052
	c-0.1202-0.0012-0.1418,0.0366-0.1405,0.1461c0.0058,0.4749,0.0049,0.9497,0,1.4246c-0.0009,0.0944,0.0187,0.1255,0.1202,0.1247
	c0.6705-0.0052,1.3411,0,2.0117-0.0052c0.1001-0.0008,0.1226,0.0278,0.1202,0.1231c-0.0063,0.2872-0.0043,0.5742-0.0008,0.8621
	c0.0008,0.0689-0.0162,0.0923-0.0891,0.092c-1.0997-0.0023-2.1991-0.0019-3.2984,0.0011c-0.1002,0-0.0923-0.0485-0.0921-0.1139
	C119.6663,145.2727,119.6673,141.2324,119.664,140.2285z"/>
<path class="st13" d="M97.5843,144.5818c0.1473,0.3089,0.3967,0.5574,0.706,0.7036c0.3298,0.1704,0.7179,0.1867,1.0608,0.0445
	c0.3111-0.1241,0.5156-0.4249,0.5164-0.7599c0.0146-0.3226-0.1773-0.6189-0.4777-0.7375c-0.3493-0.1744-0.7271-0.278-1.084-0.4331
	c-0.3568-0.1301-0.6744-0.3495-0.9221-0.6374c-0.1426-0.1852-0.2317-0.4061-0.2575-0.6384
	c-0.164-0.9086,0.4029-1.7893,1.2977-2.0164c0.8482-0.2425,1.7616-0.0402,2.4281,0.5379c0.0534,0.0419,0.0717,0.0716,0.0206,0.1357
	c-0.1842,0.2307-0.3643,0.465-0.5383,0.7033c-0.0534,0.0725-0.076,0.052-0.1242,0c-0.182-0.2198-0.4351-0.3691-0.7155-0.4221
	c-0.356-0.0871-0.7311,0.0284-0.9763,0.3009c-0.2026,0.2178-0.1902,0.5586,0.0276,0.7612c0.0258,0.024,0.0538,0.0454,0.0839,0.0638
	c0.2679,0.1656,0.5556,0.297,0.8562,0.391c0.2755,0.1037,0.5431,0.2278,0.8004,0.3708c0.5069,0.26,0.8326,0.7749,0.8501,1.3444
	c0.1191,0.9932-0.5189,1.9201-1.4893,2.1633c-1.07,0.3228-2.2241-0.1067-2.8226-1.0505c-0.0286-0.0422-0.0316-0.0668,0.0076-0.104
	C97.0828,145.0655,97.3308,144.8255,97.5843,144.5818z"/>
<path class="st13" d="M113.0698,140.1062c0.4273,0,0.8353,0.0028,1.2432-0.0023c0.066-0.0087,0.1277,0.0347,0.1417,0.0998
	c0.3756,0.9506,1.4577,3.6729,1.6239,4.093c0.0759-0.0837,1.157-2.8259,1.6667-4.0974c0.0203-0.0507,0.035-0.0955,0.1091-0.0948
	c0.4162,0.0037,0.8325,0.0017,1.2665,0.0017c-0.0991,0.2378-1.8821,4.4684-2.6755,6.3574
	c-0.0156,0.0649-0.0785,0.1068-0.1444,0.0963c-0.158-0.0059-0.3165-0.0056-0.4745,0c-0.0586,0.0083-0.114-0.0291-0.1283-0.0865
	c-0.489-1.1862-2.2048-5.3312-2.5715-6.2185C113.108,140.21,113.0921,140.1632,113.0698,140.1062z"/>
<path class="st13" d="M106.3753,141.8083c-0.209-0.2162-0.4528-0.3958-0.7211-0.5316c-1.0058-0.4561-2.1909-0.0105-2.6471,0.9953
	c-0.0223,0.0491-0.0426,0.0991-0.0608,0.1498c-0.3401,0.8-0.1768,1.7252,0.4166,2.3604c0.4072,0.4355,0.988,0.6654,1.5828,0.6267
	c0.4659-0.0114,0.9107-0.1963,1.2475-0.5185c0.0525-0.0463,0.1032-0.0947,0.1544-0.1416c0.0443,0.0242,0.0267,0.0618,0.0267,0.0911
	c0.0015,0.4124,0,0.8247,0.0019,1.2372c0.01,0.0573-0.0224,0.1135-0.077,0.1335c-1.2905,0.6168-2.8291,0.3593-3.8485-0.6439
	c-0.5956-0.6003-0.9302-1.4112-0.9315-2.2568c-0.0235-1.4621,0.9259-2.7622,2.3257-3.1851c0.812-0.2647,1.6961-0.1955,2.4571,0.1922
	c0.0426,0.0215,0.0759,0.0401,0.0755,0.0988C106.3736,140.8699,106.3753,141.3236,106.3753,141.8083z"/>
<path class="st13" d="M96.3361,146.2632c0,0.1034-0.015,0.1441-0.1335,0.1406c-0.3329-0.0098-0.6665-0.0059-0.9996-0.0016
	c-0.0808,0.0011-0.1058-0.0196-0.1056-0.1032c0.0023-2.0287,0.0023-4.0574,0-6.0862c0-0.0915,0.03-0.1095,0.1139-0.1084
	c0.329,0.0045,0.6582,0.0068,0.9871-0.0009c0.109-0.0025,0.139,0.0236,0.1385,0.1359
	C96.332,141.2475,96.3325,145.2634,96.3361,146.2632z"/>
<path class="st14" d="M128.5613,140.2427l0.0081,0.0443l-0.0011,0.5093l-0.0053,0.0629c-0.1707-0.1211-0.2107-0.3576-0.0896-0.5283
	C128.4977,140.2969,128.5274,140.2671,128.5613,140.2427z"/>
<path class="st14" d="M90.5938,141.3218c-0.0012-0.1202,0.0364-0.1413,0.1456-0.1399c0.3823-0.0178,0.7653,0.02,1.1368,0.1123
	c0.7119,0.2012,1.24,0.8004,1.3503,1.5318c0.1644,0.7167-0.063,1.4668-0.5977,1.9714c-0.326,0.3017-0.7469,0.4801-1.1904,0.5044
	c-0.2441,0.0267-0.4902,0.0248-0.7358,0.028c-0.0903,0.0012-0.1082-0.0267-0.1076-0.1114
	C90.5986,144.5648,90.6006,141.9669,90.5938,141.3218z"/>
<path class="st14" d="M125.1837,142.0558c0-0.2785,0.0047-0.5572-0.0025-0.8357c-0.0024-0.0971,0.0284-0.1169,0.1193-0.1151
	c0.278-0.0135,0.5564,0.0148,0.8259,0.0843c0.393,0.1079,0.6477,0.4873,0.5985,0.8918c0.0035,0.4902-0.3882,0.8919-0.8783,0.9008
	c-0.1825,0.0192-0.3651,0.0152-0.5475,0.0227c-0.0896,0.0037-0.1202-0.0155-0.1178-0.1131
	C125.1887,142.6136,125.1837,142.3344,125.1837,142.0558z"/>
<path class="st15" d="M128.7834,140.0631c-0.2684-0.0025-0.4879,0.213-0.4905,0.4814c-0.0025,0.2684,0.213,0.4879,0.4814,0.4905
	c0.2684,0.0025,0.4879-0.213,0.4905-0.4814c0-0.0015,0-0.0031,0-0.0045c0.0013-0.2671-0.2141-0.4846-0.4811-0.4859
	C128.7835,140.0631,128.7835,140.0631,128.7834,140.0631z M128.7834,140.9444c-0.2186,0.0091-0.4032-0.1606-0.4122-0.3791
	c-0.0091-0.2186,0.1606-0.4031,0.3791-0.4122s0.4032,0.1606,0.4122,0.3791c0.0003,0.0055,0.0004,0.0111,0.0004,0.0166
	c0.0047,0.2138-0.1649,0.391-0.3787,0.3957C128.7839,140.9444,128.7836,140.9444,128.7834,140.9444z"/>
<path class="st13" d="M128.8254,140.5984l0.1781,0.2382h-0.0239c-0.0335,0-0.0668,0-0.1004,0
	c-0.0085,0.0007-0.0166-0.0038-0.0206-0.0114c-0.0463-0.0696-0.0935-0.1389-0.1398-0.2082l-0.0019-0.0028
	c-0.0028-0.007-0.0088-0.0065-0.0143-0.0055c-0.0055,0.0011-0.0031,0.0068-0.0031,0.0103c0,0.0681,0,0.1362,0,0.2043
	c0,0.0112-0.0032,0.0134-0.0134,0.0134c-0.0292-0.0008-0.0586,0-0.088,0c-0.0074,0-0.0104-0.0012-0.0104-0.0096
	c0-0.1832,0-0.3664,0-0.5495c0-0.0063,0.0007-0.0095,0.0084-0.0093c0.063,0.0013,0.1263-0.0025,0.1893,0.0023
	c0.0435,0.0013,0.0853,0.0172,0.1187,0.0451c0.0369,0.0345,0.0551,0.0844,0.049,0.1345c0.0004,0.071-0.0502,0.1322-0.1202,0.1452
	L128.8254,140.5984z M128.6995,140.4444c0,0.0251,0,0.0503,0,0.0755c0,0.0088,0.0025,0.0105,0.0107,0.0101
	c0.0166-0.0007,0.033,0,0.0494-0.002c0.0442-0.0008,0.0796-0.0371,0.0793-0.0813c0.0043-0.0362-0.0183-0.0701-0.0534-0.0801
	c-0.0243-0.0061-0.0494-0.0088-0.0745-0.0076c-0.0081,0-0.011,0.0016-0.0108,0.0104
	C128.6999,140.3941,128.6995,140.4193,128.6995,140.4444z"/>
<linearGradient id="SVGID_1_" gradientUnits="userSpaceOnUse" x1="108.6825" y1="-682.2671" x2="111.5031" y2="-688.316" gradientTransform="matrix(1 0 0 -1 0 -542.037)">
	<stop  offset="0.3831" style="stop-color:#E45E26"/>
	<stop  offset="1" style="stop-color:#F8A020"/>
</linearGradient>
<ellipse class="st16" cx="110.0928" cy="143.2546" rx="3.3267" ry="3.3384"/>
<path class="st17" d="M26.6612,37.1229c-6.1849,0-11.1986-5.0138-11.1986-11.1986s5.0138-11.1987,11.1986-11.1987
	s11.1986,5.0138,11.1986,11.1986S32.8461,37.1229,26.6612,37.1229L26.6612,37.1229z M26.6612,36.2615
	c5.7091,0,10.3372-4.6281,10.3372-10.3372s-4.6281-10.3372-10.3372-10.3372S16.324,20.2152,16.324,25.9243
	c-0.0003,5.7088,4.6276,10.3369,10.3364,10.3372C26.6607,36.2615,26.661,36.2615,26.6612,36.2615z M27.6662,22.3747
	c-0.2344,0.0118-0.4622-0.0797-0.6234-0.2504c-0.1585-0.1837-0.2404-0.4213-0.2286-0.6637
	c-0.0019-0.3863,0.1345-0.7605,0.3845-1.0549c0.2178-0.2923,0.5602-0.4654,0.9247-0.4674c0.2342-0.021,0.4614,0.0875,0.5922,0.283
	c0.1254,0.2179,0.1866,0.4668,0.1765,0.718c0.0007,0.3609-0.1242,0.7109-0.3532,0.99c-0.202,0.2806-0.5269,0.4465-0.8727,0.4461
	V22.3747z M26.6065,31.2008c-0.0134,0.0582-0.0278,0.1342-0.0417,0.2286c-0.0114,0.0684-0.0183,0.1374-0.0207,0.2067
	c0,0.174,0.0831,0.2611,0.2493,0.2611c0.105-0.002,0.208-0.028,0.3014-0.0761c0.1068-0.0523,0.2109-0.1103,0.3117-0.1736
	c0.1039-0.0653,0.1974-0.1234,0.2804-0.1743c0.0614-0.0431,0.133-0.0694,0.2078-0.0761c0.1386,0,0.2356,0.145,0.291,0.4352
	c-0.2418,0.193-0.4952,0.3711-0.7586,0.5332c-0.27,0.1668-0.5297,0.3155-0.7792,0.446c-0.2281,0.1211-0.4642,0.2265-0.7065,0.3155
	c-0.1723,0.0696-0.3547,0.1102-0.5402,0.1202c-0.1509,0.0004-0.3001-0.0331-0.4364-0.0979
	c-0.1386-0.0653-0.2079-0.2211-0.2079-0.4674c0.0028-0.0765,0.0097-0.1528,0.021-0.2285c0.0077-0.077,0.0216-0.1534,0.0415-0.2283
	c0.3046-1.5522,0.547-2.7889,0.7272-3.7102c0.1803-0.9213,0.3154-1.6247,0.4053-2.1107c0.09-0.4858,0.1489-0.8086,0.1765-0.9683
	c0.0276-0.1597,0.0415-0.254,0.0415-0.2828c0-0.1741-0.0624-0.2612-0.187-0.2612c-0.0873,0.0091-0.172,0.035-0.2494,0.0763
	c-0.1107,0.0507-0.2285,0.1015-0.3532,0.1524s-0.239,0.1016-0.3429,0.1522c-0.0734,0.0417-0.1549,0.0676-0.2389,0.0761
	c-0.0835-0.0001-0.1581-0.0522-0.187-0.1306c-0.0451-0.0976-0.08-0.1998-0.1039-0.3046c0.2493-0.145,0.5402-0.3082,0.8728-0.4895
	c0.3326-0.1813,0.6547-0.3517,0.9663-0.5113c0.3115-0.1597,0.5886-0.2903,0.8311-0.3917c0.1538-0.076,0.3188-0.1274,0.4885-0.1524
	c0.2354,0,0.3532,0.1233,0.3532,0.3698c-0.0011,0.1102-0.0151,0.2198-0.0415,0.3266L26.6065,31.2008z"/>
<path class="st18" d="M166.4994,130.2348h32.2237c1.4267,0,2.5833,1.1566,2.5833,2.5833v20.2054
	c0,1.4267-1.1566,2.5833-2.5833,2.5833h-32.2237c-1.4267,0-2.5833-1.1566-2.5833-2.5833v-20.2054
	C163.9162,131.3913,165.0727,130.2348,166.4994,130.2348z"/>
<rect x="164.25" y="136.5778" width="36.7226" height="3.3384"/>
<path d="M200.6387,136.9116v2.6707h-36.0549v-2.6707H200.6387 M201.3064,136.2439h-37.3902v4.0061h37.3902V136.2439z"/>
<rect x="167.2546" y="147.2607" width="8.6799" height="0.6677"/>
<polygon points="176.2683,146.9268 166.9207,146.9268 166.9207,148.2622 176.2683,148.2622 "/>
<rect x="167.2546" y="149.9314" width="8.6799" height="0.6677"/>
<polygon points="176.2683,149.5976 166.9207,149.5976 166.9207,150.9329 176.2683,150.9329 "/>
<rect x="167.2546" y="152.6022" width="8.6799" height="0.6677"/>
<polygon points="176.2683,152.2683 166.9207,152.2683 166.9207,153.6037 176.2683,153.6037 "/>
<rect y="0.0366" class="st14" width="219" height="170.9268"/>
<path class="st13" d="M30.2256,146.0172h0.043c0.1094,0,0.2261-0.0147,0.2261-0.1725v-1.59c0-0.1584-0.1167-0.1725-0.2261-0.1725
	h-0.0427v-0.0931c0.1194,0,0.3022,0.0126,0.4522,0.0126c0.1526,0,0.3357-0.0126,0.479-0.0126v0.0924h-0.043
	c-0.1096,0-0.2259,0.0147-0.2259,0.1725v1.59c0,0.1584,0.1163,0.1728,0.2259,0.1728h0.0427v0.0915
	c-0.1469,0-0.3298-0.0116-0.4825-0.0116c-0.1497,0-0.3293,0.0116-0.4487,0.0116v-0.0915V146.0172z M33.2551,145.5107l0.0059-0.0059
	v-1.1381c0.0191-0.1373-0.0768-0.264-0.2139-0.2831c-0.0172-0.0024-0.0347-0.0029-0.0522-0.0017h-0.0668v-0.0921
	c0.1433,0,0.2843,0.0123,0.4273,0.0123c0.1249,0,0.2505-0.0123,0.3751-0.0123v0.0921h-0.0446c-0.1286,0-0.2725,0.0234-0.2725,0.3849
	v1.3812c-0.0017,0.1024,0.0045,0.2048,0.0187,0.3062h-0.116l-1.5727-1.7417v1.2498c0,0.2649,0.0514,0.3551,0.2866,0.3551h0.0521
	v0.0915c-0.131,0-0.2627-0.0116-0.3942-0.0116c-0.1366,0-0.2776,0.0116-0.4148,0.0116v-0.0915h0.0427
	c0.2106,0,0.275-0.1418,0.275-0.3851v-1.2779c-0.0003-0.1506-0.1226-0.2726-0.2734-0.2723c-0.0015,0-0.0031,0-0.0045,0h-0.0401
	V143.99c0.1155,0,0.2349,0.0123,0.3507,0.0123c0.0921,0,0.1811-0.0123,0.272-0.0123L33.2551,145.5107z M34.1883,144.1418
	c-0.2293,0-0.2374,0.0547-0.2836,0.276h-0.0915c0.0126-0.0848,0.0267-0.1696,0.0369-0.2581
	c0.012-0.0852,0.0182-0.1712,0.0184-0.2573h0.073c0.0248,0.0909,0.1008,0.0873,0.1833,0.0873h1.5757
	c0.0819,0,0.1588-0.0028,0.1649-0.0935l0.0725,0.0123c-0.0111,0.0812-0.0234,0.1637-0.033,0.2456
	c-0.0061,0.0819-0.0061,0.1637-0.0061,0.2457l-0.0912,0.0342c-0.0061-0.1128-0.0219-0.2924-0.227-0.2924H35.08v1.6158
	c0,0.2342,0.1068,0.2605,0.2537,0.2605h0.0577v0.0915c-0.1187,0-0.3328-0.012-0.4977-0.012c-0.1828,0-0.3971,0.012-0.5163,0.012
	v-0.0915h0.058c0.1684,0,0.2537-0.0147,0.2537-0.2537v-1.6213L34.1883,144.1418z M36.0362,146.0172h0.0427
	c0.1096,0,0.2257-0.0147,0.2257-0.1725v-1.59c0-0.1584-0.116-0.1725-0.2257-0.1725h-0.0427v-0.0931
	c0.1857,0,0.5045,0.0126,0.7604,0.0126c0.2559,0,0.5742-0.0126,0.7808-0.0126c-0.0051,0.131-0.0017,0.332,0.0072,0.4652
	l-0.0924,0.0243c-0.0146-0.1971-0.0511-0.3547-0.3719-0.3547h-0.4234v0.7941h0.3623c0.1836,0,0.2234-0.1023,0.2413-0.266h0.0912
	c-0.0059,0.1181-0.0088,0.2362-0.0088,0.3547c0,0.1158,0.0029,0.2309,0.0088,0.3456l-0.0912,0.0184
	c-0.0179-0.1821-0.0267-0.3006-0.2384-0.3006h-0.3655v0.7071c0,0.1974,0.1765,0.1974,0.3714,0.1974
	c0.3672,0,0.5287-0.0242,0.6203-0.3702l0.0853,0.0216c-0.0401,0.1612-0.076,0.3205-0.1038,0.4825
	c-0.1951,0-0.5468-0.0123-0.8215-0.0123s-0.638,0.012-0.812,0.012v-0.0915L36.0362,146.0172z M38.5769,145.0157h0.1488
	c0.3057,0,0.4703-0.115,0.4703-0.4735c0.0156-0.2292-0.1574-0.4276-0.3866-0.4431c-0.0196-0.0013-0.0394-0.0013-0.0592,0.0001
	c-0.0581,0.0008-0.116,0.0049-0.1736,0.0123L38.5769,145.0157z M38.1861,144.3114c0-0.2215-0.1222-0.2301-0.217-0.2301h-0.0555
	v-0.0919c0.0976,0,0.2871,0.0123,0.4738,0.0123c0.1827,0,0.3296-0.0123,0.4918-0.0123c0.3839,0,0.7258,0.1032,0.7258,0.5349
	c-0.0088,0.2517-0.1808,0.4684-0.424,0.5341l0.5228,0.7761c0.0573,0.1106,0.1709,0.1805,0.2954,0.1819v0.0915
	c-0.1006,0-0.1983-0.012-0.2989-0.012c-0.0953,0-0.1927,0.012-0.2871,0.012c-0.2344-0.3127-0.4465-0.6415-0.6352-0.9838h-0.2011
	v0.6495c0,0.2345,0.1096,0.2428,0.2497,0.2428h0.0555v0.0915c-0.1745,0-0.3515-0.012-0.5255-0.012
	c-0.1469,0-0.2902,0.012-0.4431,0.012v-0.0915h0.0555c0.1123,0,0.217-0.0509,0.217-0.1638v-1.5412H38.1861z M42.072,145.5104
	l0.0059-0.0059v-1.1381c0.0192-0.1371-0.0764-0.2637-0.2135-0.283c-0.0171-0.0024-0.0345-0.0031-0.0517-0.0019h-0.0668v-0.0921
	c0.1437,0,0.2834,0.0123,0.4273,0.0123c0.1258,0,0.2502-0.0123,0.3758-0.0123v0.0921h-0.0454c-0.1286,0-0.2721,0.0234-0.2721,0.3849
	v1.3812c-0.002,0.1024,0.0039,0.2047,0.0175,0.3062h-0.1152l-1.5727-1.7417v1.2498c0,0.2649,0.0521,0.3551,0.2872,0.3551h0.0523
	v0.0915c-0.1317,0-0.2635-0.0116-0.3949-0.0116c-0.1374,0-0.2778,0.0116-0.4149,0.0116v-0.0915h0.0421
	c0.2114,0,0.275-0.1418,0.275-0.3851v-1.2779c0-0.1504-0.1219-0.2723-0.2723-0.2723c-0.0016,0-0.0033,0-0.0049,0h-0.0401v-0.0921
	c0.1155,0,0.2357,0.0123,0.3509,0.0123c0.0912,0,0.1797-0.0123,0.2716-0.0123L42.072,145.5104z M43.4859,144.3298h-0.0057
	l-0.2843,0.8589h0.5706L43.4859,144.3298z M43.0406,145.6744c-0.0307,0.0762-0.0535,0.1554-0.0684,0.2364
	c0,0.0915,0.1293,0.1062,0.2296,0.1062h0.0339v0.0912c-0.1229-0.0059-0.2477-0.0117-0.3702-0.0117
	c-0.11,0-0.2194,0.0059-0.329,0.0117v-0.0912h0.0175c0.1225,0.0005,0.2305-0.0797,0.2652-0.1971l0.4893-1.3923
	c0.0477-0.1226,0.0855-0.2486,0.1132-0.3772c0.0967-0.0342,0.1896-0.0779,0.2778-0.1302c0.0077-0.0033,0.0162-0.0052,0.0246-0.0055
	c0.0081-0.0015,0.0164,0.002,0.0214,0.0087c0.0091,0.0243,0.0182,0.0515,0.0278,0.0761l0.5609,1.5872
	c0.0366,0.1062,0.0734,0.2189,0.1126,0.3101c0.033,0.0808,0.1155,0.1298,0.2022,0.1202h0.0192v0.0912
	c-0.1369-0.0059-0.2746-0.0117-0.4208-0.0117c-0.1492,0-0.3023,0.0059-0.4576,0.0117v-0.0912h0.0337
	c0.0696,0,0.1888-0.0115,0.1888-0.0875c-0.0115-0.0752-0.0323-0.1486-0.0617-0.2187l-0.119-0.3521h-0.6931l-0.0965,0.3158h-0.0014
	V145.6744z M44.8022,144.1415c-0.2295,0-0.2384,0.0547-0.2843,0.276h-0.0916c0.0126-0.0848,0.028-0.1696,0.0371-0.2581
	c0.0123-0.0852,0.0186-0.1712,0.0184-0.2573h0.073c0.0243,0.0909,0.101,0.0873,0.1831,0.0873h1.5757
	c0.0823,0,0.158-0.0028,0.1644-0.0935l0.0734,0.0123c-0.0117,0.0812-0.0235,0.1637-0.0334,0.2456
	c-0.0076,0.0819-0.0076,0.1637-0.0076,0.2457l-0.0907,0.0342c-0.0049-0.1128-0.021-0.2924-0.2251-0.2924h-0.5012v1.6158
	c0,0.2342,0.1068,0.2605,0.2537,0.2605h0.0577v0.0915c-0.1187,0-0.3325-0.012-0.4977-0.012c-0.1828,0-0.3971,0.012-0.5168,0.012
	v-0.0915h0.0585c0.1688,0,0.2544-0.0147,0.2544-0.2537v-1.6213L44.8022,144.1415z M46.6638,146.0169h0.0426
	c0.1106,0,0.2261-0.0147,0.2261-0.1725v-1.59c0-0.1584-0.1155-0.1725-0.2261-0.1725h-0.0426v-0.0928
	c0.119,0,0.3021,0.0126,0.4515,0.0126c0.1529,0,0.336-0.0126,0.4807-0.0126v0.0924h-0.0427c-0.1108,0-0.227,0.0147-0.227,0.1725
	v1.59c0,0.1584,0.1163,0.1728,0.227,0.1728h0.0427v0.0915c-0.1469,0-0.3305-0.0116-0.4831-0.0116
	c-0.15,0-0.3298,0.0116-0.4488,0.0116L46.6638,146.0169z M48.859,146.0204c0.5933,0,0.6957-0.5191,0.6957-0.9615
	s-0.2404-0.9808-0.7478-0.9808c-0.5341,0-0.6931,0.4734-0.6931,0.8796c0,0.5436,0.2505,1.0627,0.7447,1.0627 M48.813,143.9444
	c0.5873-0.0561,1.1089,0.3746,1.1651,0.9619c0.0027,0.0284,0.0043,0.057,0.0047,0.0856c0.0255,0.616-0.4531,1.136-1.0691,1.1615
	c-0.0283,0.0012-0.0568,0.0012-0.0851,0.0003c-0.5925,0.037-1.1027-0.4133-1.1397-1.0057c-0.0017-0.028-0.0024-0.0561-0.002-0.0843
	c-0.0068-0.6115,0.4834-1.1128,1.0949-1.1196c0.0103-0.0001,0.0206-0.0001,0.031,0.0001 M52.0408,145.5103l0.0061-0.0059v-1.1381
	c0.0191-0.1373-0.0769-0.2641-0.2142-0.2831c-0.0175-0.0024-0.0353-0.0029-0.0529-0.0017H51.714v-0.0921
	c0.1427,0,0.2838,0.0123,0.4273,0.0123c0.1259,0,0.2509-0.0123,0.3758-0.0123v0.0921h-0.0457c-0.129,0-0.2726,0.0234-0.2726,0.3849
	v1.3812c-0.0017,0.1024,0.0045,0.2048,0.0187,0.3062h-0.1163l-1.5711-1.7413v1.2498c0,0.2649,0.0517,0.3551,0.2871,0.3551h0.0518
	v0.0915c-0.1313,0-0.2624-0.0116-0.3939-0.0116c-0.1374,0-0.2782,0.0116-0.4158,0.0116v-0.0915h0.0435
	c0.2114,0,0.274-0.1418,0.274-0.3851v-1.2779c0.0003-0.1501-0.1213-0.2721-0.2713-0.2723c-0.0021,0-0.0043,0-0.0064,0H50.059V143.99
	c0.1164,0,0.2352,0.0123,0.3517,0.0123c0.0913,0,0.1799-0.0123,0.2715-0.0123l1.3598,1.521L52.0408,145.5103z M53.4539,144.3297
	H53.448l-0.2846,0.8589h0.5723L53.4539,144.3297z M53.0079,145.6743c-0.0298,0.0765-0.0521,0.1556-0.0668,0.2364
	c0,0.0915,0.1293,0.1062,0.2286,0.1062h0.0342v0.0912c-0.1225-0.0059-0.2473-0.0117-0.3696-0.0117
	c-0.1111,0-0.2202,0.0059-0.3292,0.0117v-0.0912h0.0166c0.123,0.0009,0.2317-0.0793,0.2671-0.1971l0.4893-1.3923
	c0.0473-0.1226,0.0849-0.2488,0.1126-0.3772c0.0967-0.0342,0.1898-0.0779,0.2779-0.1302c0.0079-0.0033,0.0163-0.0052,0.0248-0.0055
	c0.0081-0.0015,0.0163,0.002,0.021,0.0087c0.0093,0.0243,0.0182,0.0515,0.0284,0.0761l0.5609,1.5872
	c0.0358,0.1062,0.0732,0.2189,0.113,0.3101c0.0323,0.0809,0.1148,0.1302,0.2014,0.1202h0.0182v0.0912
	c-0.1371-0.0059-0.2748-0.0117-0.421-0.0117c-0.1501,0-0.303,0.0059-0.4588,0.0117v-0.0912h0.0342
	c0.0696,0,0.1895-0.0115,0.1895-0.0875c-0.012-0.075-0.0327-0.1485-0.0617-0.2187l-0.1184-0.3521h-0.6923L53.0079,145.6743z
	 M55.4058,145.8109c0,0.1214,0.0848,0.158,0.1828,0.1703c0.1345,0.01,0.2695,0.008,0.4035-0.0059
	c0.1155-0.0136,0.2207-0.0728,0.2924-0.1644c0.0438-0.067,0.076-0.141,0.0949-0.2187h0.0887
	c-0.0342,0.1736-0.0769,0.3436-0.114,0.5161c-0.2681,0-0.5372-0.012-0.8051-0.012s-0.538,0.012-0.8064,0.012v-0.0915h0.0418
	c0.1111,0,0.2298-0.0147,0.2298-0.2032v-1.5596c0-0.1581-0.1187-0.1725-0.2298-0.1725h-0.0418v-0.0921
	c0.1617,0,0.3205,0.0123,0.4818,0.0123c0.1562,0,0.3089-0.0123,0.465-0.0123v0.0921h-0.0769c-0.1158,0-0.2067,0.0029-0.2067,0.1638
	V145.8109z"/>
<g>
	<path class="st13" d="M56.3802,144.2245h0.0381c0.0411,0,0.0605-0.031,0.0605-0.0813c0.0048-0.0329-0.0178-0.0634-0.0506-0.0682
		c-0.0041-0.0007-0.0083-0.0008-0.0126-0.0005h-0.0351v0.1501L56.3802,144.2245L56.3802,144.2245z M56.2716,144.3931v-0.0158
		c0.039-0.0056,0.0469-0.0037,0.0469-0.029v-0.2359c0-0.0337-0.0041-0.045-0.0462-0.0433v-0.0164h0.1652
		c0.0555,0,0.1082,0.0267,0.1082,0.0848c-0.0003,0.0458-0.0315,0.0855-0.076,0.0965l0.0523,0.0737
		c0.02,0.0284,0.0441,0.0537,0.0713,0.0752v0.0101h-0.062c-0.03,0-0.0561-0.0632-0.1155-0.1469h-0.0351v0.1059
		c0,0.0216,0.0073,0.0198,0.0462,0.0254v0.0158h-0.1546L56.2716,144.3931z M56.4319,144.4838
		c0.1437,0.0029,0.2624-0.1112,0.2653-0.2549c0.0029-0.1437-0.1112-0.2624-0.2549-0.2654
		c-0.1437-0.0029-0.2624,0.1112-0.2653,0.2549c0,0.002,0,0.004,0,0.006C56.1763,144.3663,56.2901,144.482,56.4319,144.4838z
		 M56.4319,143.9042c0.1765,0.0012,0.3186,0.1452,0.3174,0.3217c-0.0012,0.1765-0.1452,0.3186-0.3217,0.3174
		c-0.1753-0.0012-0.3169-0.1433-0.3174-0.3186c-0.0028-0.1741,0.1361-0.3177,0.3102-0.3205c0.0036,0,0.0072,0,0.011,0H56.4319z"/>
</g>
<path class="st13" d="M49.5154,139.8905H49.375c-0.078-0.5833-0.614-0.9928-1.1973-0.9149
	c-0.0009,0.0001-0.0019,0.0003-0.0029,0.0004c-0.8804,0.0005-1.5938,0.7147-1.5931,1.5952c0,0.0574,0.0032,0.1149,0.0093,0.1719
	c-0.0652,0.9943,0.6801,1.8567,1.6733,1.9363c0.5629,0.0013,1.0423-0.4088,1.1281-0.9651l0.1287,0.0331l-0.1287,0.8146
	c-0.3894,0.1817-0.8116,0.2822-1.2411,0.2952c-1.0961,0.0859-2.0541-0.7331-2.1399-1.8292
	c-0.0069-0.0889-0.0079-0.1783-0.0029-0.2673c0.051-1.1268,0.9995-2.0025,2.1268-1.9637c0.4548,0.0238,0.9024,0.1236,1.3242,0.2954
	L49.5154,139.8905z M49.7174,142.6291h0.1068c0.1573,0,0.2699,0,0.2699-0.1848v-3.105c0-0.3632-0.0843-0.3739-0.2978-0.4357v-0.0892
	c0.1992-0.0633,0.3927-0.1438,0.5782-0.2404c0.0385-0.0254,0.0799-0.0462,0.1231-0.062c0.0342,0,0.045,0.0336,0.045,0.0789v3.8525
	c0,0.1848,0.1237,0.1848,0.2804,0.1848h0.0953v0.1453c-0.19,0-0.3873-0.0108-0.5896-0.0108s-0.4035,0.0059-0.612,0.0108v-0.145
	L49.7174,142.6291z M53.3213,142.4674c0,0.1008,0.0614,0.1059,0.1573,0.1059c0.0668,0,0.1516-0.0051,0.2246-0.0051v0.1176
	c-0.2735,0.0378-0.5439,0.0955-0.8091,0.1725l-0.0275-0.017v-0.4512c-0.2616,0.2743-0.6161,0.4411-0.9943,0.4674
	c-0.3326,0.0094-0.6099-0.2527-0.6192-0.5853c-0.0007-0.0259,0.0003-0.0518,0.0028-0.0777v-1.4282
	c0-0.1457-0.0231-0.2851-0.3362-0.3126v-0.1059c0.2023-0.0061,0.6501-0.0388,0.7234-0.0388c0.0624,0,0.0624,0.0388,0.0624,0.1615
	v1.4387c0,0.1669,0,0.6469,0.4881,0.6469c0.2556-0.0409,0.4923-0.1593,0.6784-0.3392v-1.5016c0-0.1112-0.2691-0.172-0.4708-0.2285
	v-0.1003c0.505-0.0336,0.8198-0.0774,0.8756-0.0774c0.0447,0,0.0447,0.0388,0.0447,0.1003L53.3213,142.4674z M54.4378,142.144
	c0.0163,0.3109,0.2673,0.5578,0.5785,0.569c0.6009,0,0.8533-0.586,0.8533-1.0824c0.0259-0.5431-0.3608-1.0186-0.8978-1.1039
	c-0.2035,0.0216-0.3927,0.1148-0.5341,0.2628L54.4378,142.144L54.4378,142.144z M54.4378,140.6266
	c0.2263-0.223,0.5208-0.3639,0.8363-0.4006c0.6006,0.0227,1.0691,0.528,1.0464,1.1286c-0.0005,0.014-0.0013,0.0282-0.0024,0.0422
	c0.0278,0.7721-0.5702,1.4232-1.3419,1.4613c-0.2719-0.0003-0.5396-0.0672-0.7797-0.1948l-0.1681,0.1278l-0.1175-0.0612
	c0.0509-0.3285,0.0768-0.6603,0.0777-0.9927v-2.3979c0-0.3632-0.0839-0.3746-0.2971-0.4357v-0.0895
	c0.1995-0.0626,0.393-0.143,0.5782-0.2404c0.0386-0.0254,0.0801-0.0459,0.1237-0.0614c0.0337,0,0.0445,0.0334,0.0445,0.0786v2.0351
	L54.4378,140.6266L54.4378,140.6266z M31.2983,142.1162c0,0.4299,0.3087,0.4795,0.5837,0.4795
	c0.8592,0.0354,1.5843-0.6323,1.6197-1.4915c0.0035-0.0831,0.0001-0.1663-0.0096-0.2488c0.0646-0.9258-0.6335-1.7286-1.5592-1.7933
	c-0.0654-0.0045-0.1313-0.0053-0.1968-0.0021c-0.2302,0-0.3364,0.016-0.4377,0.0219
	C31.2983,139.082,31.2983,142.1162,31.2983,142.1162z M30.7485,139.4998c0-0.5016-0.2641-0.4684-0.5163-0.4743v-0.1438
	c0.2185,0.0099,0.4431,0.0099,0.6621,0.0099c0.2357,0,0.5556-0.0099,0.9709-0.0099c1.1204-0.1142,2.1214,0.7015,2.2355,1.8218
	c0.0044,0.0433,0.0075,0.0865,0.0091,0.1301c0,0.5522-0.3252,1.9408-2.3119,1.9408c-0.2854,0-0.55-0.0108-0.8135-0.0108
	c-0.2527,0-0.5001,0.0059-0.7522,0.0108v-0.1453c0.3361-0.0334,0.4996-0.0445,0.5163-0.4237L30.7485,139.4998z M34.9077,139.3663
	c-0.1512,0-0.2738-0.1226-0.2738-0.2738s0.1226-0.2738,0.2738-0.2738c0.1496-0.0004,0.2719,0.119,0.275,0.2686
	c-0.0001,0.1526-0.1227,0.2768-0.2752,0.2792L34.9077,139.3663z M34.3068,142.6288h0.1068c0.157,0,0.2691,0,0.2691-0.1848v-1.5107
	c0-0.2453-0.0833-0.279-0.2919-0.3898v-0.0895c0.2641-0.0787,0.5785-0.1836,0.6009-0.2012
	c0.0306-0.0178,0.0654-0.0272,0.1008-0.0275c0.0278,0,0.0389,0.0331,0.0389,0.0779v2.1409c0,0.1848,0.1241,0.1848,0.2804,0.1848
	h0.0956v0.1453c-0.191,0-0.3873-0.0108-0.589-0.0108s-0.4041,0.0059-0.6117,0.0108L34.3068,142.6288z M36.0409,140.9667
	c0-0.2059-0.0617-0.2617-0.3252-0.3674v-0.1068c0.2512-0.0767,0.4982-0.1657,0.7405-0.2671c0.017,0,0.0332,0.0108,0.0332,0.055
	v0.3635c0.2691-0.2426,0.6107-0.3898,0.9717-0.4185c0.4767,0,0.6454,0.3451,0.6454,0.7808v1.4382
	c0,0.1848,0.1237,0.1848,0.2804,0.1848h0.101v0.145c-0.1971,0-0.3934-0.0108-0.5945-0.0108c-0.2011,0-0.4045,0.0059-0.6065,0.0108
	v-0.145h0.1012c0.1573,0,0.2687,0,0.2687-0.1848v-1.4437c0-0.3185-0.1959-0.4741-0.5161-0.4741
	c-0.2352,0.0361-0.4584,0.1277-0.6513,0.2671v1.6501c0,0.1848,0.1246,0.1848,0.2816,0.1848h0.101v0.145
	c-0.1966,0-0.3937-0.0108-0.596-0.0108s-0.4035,0.0059-0.6053,0.0108v-0.145h0.1011c0.157,0,0.2691,0,0.2691-0.1848
	C36.0409,142.4438,36.0409,140.9667,36.0409,140.9667z M39.9082,141.0562c0.1398,0,0.1561-0.0725,0.1561-0.1393
	c0.0222-0.2607-0.1712-0.4899-0.4319-0.512c-0.0186-0.0016-0.0371-0.002-0.0558-0.0015c-0.3423,0-0.5779,0.2506-0.6454,0.6527
	L39.9082,141.0562L39.9082,141.0562z M38.9148,141.2351c-0.0131,0.1074-0.0131,0.2158,0,0.3232
	c-0.02,0.4878,0.3395,0.9084,0.8243,0.9649c0.293-0.0163,0.5667-0.1513,0.758-0.3739l0.0787,0.078
	c-0.2227,0.3664-0.6099,0.6014-1.0377,0.6299c-0.6189-0.0251-1.1003-0.5474-1.0752-1.1663
	c0.0007-0.0163,0.0017-0.0326,0.0031-0.0489c-0.0971-0.6808,0.3762-1.3113,1.0569-1.4084c0.0251-0.0036,0.0505-0.0064,0.0757-0.0084
	c0.4899-0.0332,0.9139,0.3369,0.9472,0.8269c0.0011,0.016,0.0017,0.0321,0.002,0.0481c0.0009,0.0338-0.0008,0.0677-0.0052,0.1012
	l-0.0511,0.0336L38.9148,141.2351z M40.6764,142.6288h0.152c0.157,0,0.2685,0,0.2685-0.1848v-1.5664
	c0-0.1725-0.2071-0.2062-0.2912-0.2512v-0.0828c0.4093-0.1736,0.6346-0.3182,0.6852-0.3182c0.0333,0,0.0499,0.0162,0.0499,0.0725
	v0.5016h0.012c0.1398-0.217,0.3755-0.5742,0.7179-0.5742c0.168-0.0083,0.3107,0.1212,0.319,0.2891
	c0.0001,0.0022,0.0001,0.0041,0.0003,0.0063c0.0077,0.1496-0.1071,0.2771-0.2565,0.2848c-0.0023,0.0001-0.0044,0.0003-0.0067,0.0003
	c-0.1745,0-0.1745-0.1345-0.3704-0.1345c-0.2329,0.0311-0.4076,0.2286-0.41,0.4635v1.3087c0,0.1848,0.1123,0.1848,0.2692,0.1848
	h0.3145v0.1453c-0.3089-0.0052-0.544-0.0108-0.7852-0.0108c-0.2308,0-0.4662,0.0059-0.6685,0.0108
	C40.6764,142.7736,40.6764,142.6288,40.6764,142.6288z M42.8369,141.9989c0.0288,0.3738,0.3332,0.6666,0.7077,0.681
	c0.331,0,0.454-0.2012,0.454-0.3962c0-0.6581-1.2224-0.4468-1.2224-1.3443c0.0268-0.4238,0.3923-0.7457,0.8162-0.7188
	c0.018,0.0012,0.0359,0.0029,0.0538,0.0053c0.2225,0.0051,0.4409,0.0601,0.6392,0.161l0.0401,0.5691h-0.1287
	c-0.0122-0.3178-0.2798-0.5657-0.5976-0.5535c-0.0049,0.0001-0.0099,0.0004-0.0148,0.0008
	c-0.2161-0.0244-0.4112,0.1309-0.4356,0.3469c-0.0008,0.0071-0.0015,0.0143-0.0019,0.0215c0,0.653,1.3016,0.4521,1.3016,1.3276
	c0,0.3679-0.2974,0.7586-0.9647,0.7586c-0.2404-0.0067-0.4755-0.0716-0.6852-0.1892l-0.0617-0.6416l0.1006-0.028L42.8369,141.9989z"
	/>
<g>
	<path class="st19" d="M22.0736,147.8239c-2.9351,0.0282-5.3408-2.3217-5.3815-5.2567c-0.0568-2.8979,2.2464-5.293,5.1442-5.3497
		c0.0791-0.0016,0.1582-0.0013,0.2373,0.0007h1.3838c3.0006-0.0802,5.4981,2.2872,5.5782,5.2878
		c0.0005,0.0204,0.0009,0.0409,0.0013,0.0613c-0.1518,2.9637-2.612,5.2815-5.5796,5.2567L22.0736,147.8239L22.0736,147.8239z"/>
</g>
<g>
	<path class="st19" d="M22.0736,147.8239c-2.9351,0.0282-5.3408-2.3217-5.3815-5.2567c-0.0568-2.8979,2.2464-5.293,5.1442-5.3497
		c0.0791-0.0016,0.1582-0.0013,0.2373,0.0007h0.0776c2.9496-0.0708,5.3981,2.2629,5.469,5.2125
		c0.0011,0.0455,0.0016,0.0911,0.0015,0.1366c-0.1003,2.9439-2.5248,5.2738-5.4705,5.2567L22.0736,147.8239L22.0736,147.8239z"/>
</g>
<path class="st20" d="M22.0859,137.657c-2.6809,0.0171-4.8403,2.2042-4.8232,4.8849s2.2042,4.8403,4.8849,4.8232
	c2.6685-0.017,4.8229-2.1848,4.8233-4.8534c-0.0081-2.6894-2.1948-4.863-4.8842-4.8548
	C22.0864,137.657,22.0861,137.657,22.0859,137.657"/>
<path class="st19" d="M20.977,145.3824v-5.7421c-1.5856,0.5969-2.3871,2.3663-1.7902,3.9519
	C19.4979,144.4188,20.1504,145.0712,20.977,145.3824 M25.1825,142.5113c-0.0037-1.277-0.7948-2.4194-1.9889-2.8722v5.7442
	c1.194-0.4527,1.985-1.5951,1.9886-2.872"/>
<path class="st21" d="M163.4949,72.814H201.06c1.4267,0,2.5833,1.1566,2.5833,2.5833v20.2054c0,1.4267-1.1566,2.5833-2.5833,2.5833
	h-37.5652c-1.4267,0-2.5833-1.1566-2.5833-2.5833V75.3973C160.9116,73.9706,162.0681,72.814,163.4949,72.814z"/>
<polygon class="st22" points="166.6016,82.1162 167.9436,82.1162 167.2719,80.4083 "/>
<polygon class="st22" points="173.7351,87.8476 173.7351,88.6395 175.9919,88.6395 175.9919,89.4941 173.7351,89.4941 
	173.7351,90.4088 176.2362,90.4088 177.394,89.1282 176.2963,87.8476 "/>
<polygon class="st22" points="191.3579,80.4083 190.6261,82.1162 192.0283,82.1162 "/>
<polygon class="st22" points="180.2597,90.8962 180.2597,87.4203 178.6746,89.1282 "/>
<path class="st22" d="M183.2478,88.3963c-0.035-0.3362-0.3346-0.5814-0.6711-0.549h-1.2802v1.0979h1.3415
	C183.0039,88.9453,183.2478,88.762,183.2478,88.3963z"/>
<path class="st22" d="M187.5158,88.8232c0.1313-0.1008,0.2006-0.2627,0.1831-0.4273c0.0614-0.1684-0.0187-0.3556-0.1831-0.4273
	c-0.1565-0.0541-0.3225-0.0749-0.4875-0.061h-1.2197v0.9757h1.2196C187.1931,88.8974,187.3592,88.877,187.5158,88.8232z"/>
<path class="st22" d="M196.296,78.8232v0.7317l-0.3656-0.7317h-2.8656v0.7317l-0.366-0.7317h-3.9023
	c-0.5901-0.0155-1.1754,0.1099-1.7073,0.3659v-0.3659h-2.7438v0.3659c-0.3304-0.2557-0.7411-0.3854-1.1584-0.3659h-9.8164
	l-0.671,1.5245l-0.6711-1.5245h-3.1097v0.7317l-0.3049-0.7317h-2.6829l-1.2197,2.8657l-1.4021,3.1097l-0.0258,0.0612h3.1746
	l0.022-0.0612l0.366-0.9145h0.7927l0.3658,0.9756h3.5367v-0.7316l0.305,0.7315h1.7682l0.3047-0.7315v0.7316h8.4756v-1.5855h0.1222
	c0.1219,0,0.1219,0,0.1219,0.1831v1.3414h4.3902v-0.3659c0.5126,0.2489,1.0763,0.3742,1.6461,0.3659h1.8295l0.3658-0.9748h0.8534
	l0.3659,0.9748h3.5363v-0.9145l0.5491,0.9145h2.8657v-5.9755h-2.744H196.296z M175.6259,83.9453h-0.9756v-3.3537l-0.061,0.1398
	v-0.0017l-1.4184,3.2156h-0.8987l-1.4633-3.3536v3.3536h-2.073l-0.4273-0.9146h-2.0728l-0.4273,0.9146h-1.0717l1.8038-4.2684h1.5242
	l1.7073,4.0853v-4.0853h1.6158l0.0287,0.0612h0.0021l0.7693,1.6744l0.5524,1.2544l0.0196-0.0632l1.2193-2.9267h1.6466
	L175.6259,83.9453L175.6259,83.9453z M179.8333,80.5916h-2.3782v0.7925h2.3171v0.8536h-2.3171v0.854h2.3786v0.9143h-3.4145v-4.329
	h3.4145v0.9146L179.8333,80.5916z M184.1823,82.1639l0.0055,0.0036c0.0215,0.0227,0.0414,0.0469,0.0597,0.0722
	c0.1478,0.2085,0.2237,0.4594,0.2159,0.7148l0.0009,0.0172l0.0007,0.0098v0.0052c0.0015,0.0337,0.0024,0.0678,0.0024,0.105v0.8537
	h-0.9145v-0.4885c0.028-0.2966-0.0359-0.5946-0.1832-0.8536c-0.0511-0.0523-0.1122-0.094-0.1795-0.1226
	c-0.1768-0.0624-0.3658-0.0831-0.5519-0.0602h-1.0979v1.5245h-1.0364v-4.268h2.3173c0.4156-0.0493,0.8366,0.0139,1.2195,0.1829
	c0.3256,0.2012,0.5128,0.5663,0.4861,0.9481c0.0053,0.4878-0.2824,0.9312-0.7302,1.1249
	C183.9442,81.9724,184.0779,82.0524,184.1823,82.1639z M186.2356,83.9453h-1.0367v-4.2684h1.0367V83.9453z M198.1257,83.9453
	h-1.3416l-1.9511-3.2316v2.6829l-0.0064-0.0063v0.5579h-1.0301v-0.0026h-1.0364l-0.3658-0.9146H190.26l-0.3659,0.9748h-1.1584
	c-1.0058,0.1138-1.9135-0.6095-2.0271-1.6153c-0.0195-0.1728-0.0144-0.3475,0.0152-0.5187
	c-0.0346-0.6175,0.1608-1.2259,0.5486-1.7075c0.4129-0.3766,0.9694-0.5546,1.5242-0.4877h0.9759v0.9146h-0.9759
	c-0.2858-0.0227-0.5693,0.0645-0.7928,0.244c-0.2178,0.2766-0.3262,0.6235-0.3046,0.9748
	c-0.0501,0.3731,0.0608,0.7499,0.3046,1.0366c0.1998,0.1789,0.4647,0.2672,0.7319,0.2442h0.4273l1.4021-3.3536h1.5245l1.7075,4.0853
	v-4.0844h1.5242l1.768,2.9876v-2.9876h1.0369v4.2071l0,0l0,0L198.1257,83.9453z"/>
<path class="st22" d="M183.3129,81.4547c0.0186-0.0198,0.0345-0.0417,0.0475-0.0653c0.0835-0.1378,0.1135-0.3014,0.0845-0.4599
	c-0.0016-0.0187-0.0047-0.0373-0.0092-0.0555l-0.0023-0.0142h-0.0007c-0.0295-0.0923-0.0967-0.1677-0.1851-0.2075
	c-0.1566-0.054-0.3229-0.0745-0.4879-0.0608H181.54v0.9756h1.2197c0.1652,0.0139,0.3313-0.0069,0.4879-0.061
	c0.0184-0.0098,0.0354-0.0219,0.0504-0.0363v0.0008L183.3129,81.4547z"/>
<path class="st22" d="M201.7229,90.0428c0.0008-0.4061-0.1042-0.8054-0.3046-1.1586V86.141h-0.0028v-0.1831h-2.9362
	c-0.3082,0.0443-0.5988,0.1707-0.8413,0.3658v-0.3658h-2.8043c-0.4361-0.0191-0.866,0.1099-1.2196,0.3658v-0.3658h-4.9999v0.3656
	c-0.4002-0.2539-0.8676-0.3814-1.3414-0.3658H183.98v0.3656c-0.4162-0.2687-0.9076-0.3969-1.4021-0.3658h-3.658l-0.8538,0.9147
	l-0.7927-0.9147h-5.4875v6.1588h5.3658l0.8813-0.882l0.7642,0.882h3.4133v-1.4021h0.305c0.4749,0.0295,0.9509-0.0327,1.4021-0.1832
	v1.6457h2.7439v-1.5855h0.1216c0.1832,0,0.1832,0,0.1832,0.1829v1.4025h8.2926c0.494,0.026,0.9839-0.1019,1.4021-0.3662v0.3662
	h2.6221c0.5066,0.0361,1.0134-0.0696,1.4634-0.305c0.5738-0.3551,0.9358-0.97,0.9678-1.6441l0.0075-0.0632l-0.0036-0.0035
	C201.7213,90.1216,201.7229,90.0826,201.7229,90.0428z M182.5162,89.677h-1.2198v1.5852h-2.0041l-1.1664-1.3422l-0.004,0.0045
	l-0.057-0.0656l-1.3414,1.4021h-3.9023v-4.2672h3.9634l1.0827,1.1861l0.227,0.2484l0.0309-0.0321l1.2806-1.4021h3.2316
	c0.6443-0.0888,1.2773,0.2258,1.5956,0.7929c0.0346,0.1394,0.0515,0.2827,0.0506,0.4264
	C184.2841,89.4329,183.4304,89.677,182.5162,89.677z M188.6135,89.6159c0.1391,0.24,0.2029,0.5161,0.1829,0.7928v0.8534h-1.0365
	v-0.5486c0.0345-0.297-0.0299-0.5972-0.1831-0.854c-0.1216-0.1825-0.3659-0.1825-0.7315-0.1825h-1.0974v1.5852h-1.0365v-4.3293
	h2.3169c0.4156-0.0437,0.8353,0.0192,1.2197,0.1828c0.3504,0.1976,0.5618,0.5737,0.5484,0.9757
	c0.0182,0.5001-0.2723,0.9601-0.7316,1.1586C188.2826,89.3093,188.4751,89.4376,188.6135,89.6159z M192.821,87.8473h-2.3784V88.64
	h2.3175v0.8538h-2.3171v0.8536h2.3784v0.9145h-3.4147V86.933h3.4147L192.821,87.8473z M195.3817,91.2623h-1.9512v-0.9149h1.9512
	c0.1536,0.026,0.3106-0.0188,0.4273-0.1221c0.1623-0.1708,0.1623-0.4388,0-0.6096c-0.1017-0.0864-0.2329-0.1301-0.3661-0.1219
	c-0.9756-0.061-2.1342,0-2.1342-1.3414c0-0.6097,0.3659-1.2806,1.4635-1.2806h2.012v1.0364h-1.8901
	c-0.1453-0.0144-0.2919,0.0065-0.4273,0.061c-0.1216,0.0612-0.1216,0.1832-0.1216,0.305c0,0.1831,0.1216,0.2441,0.2436,0.3046
	c0.1152,0.0498,0.2408,0.0708,0.3659,0.0612h0.5488c0.4198-0.0405,0.8381,0.0916,1.1586,0.3659
	c0.2186,0.2525,0.3282,0.5814,0.3049,0.9146C196.9665,90.8351,196.4182,91.2623,195.3817,91.2623z M200.6255,90.8349
	c-0.354,0.3054-0.8142,0.459-1.2806,0.4273h-1.9511v-0.9149h1.9507c0.1536,0.026,0.3107-0.0188,0.4273-0.1221
	c0.1625-0.1707,0.1625-0.4389,0-0.6096c-0.1016-0.0864-0.2328-0.1302-0.3659-0.1219c-0.9748-0.061-2.134,0-2.134-1.3412
	c-0.0084-0.6569,0.4943-1.2074,1.1492-1.2586c0.1042-0.0147,0.2091-0.022,0.3142-0.0222h2.0123v1.0364h-1.8904
	c-0.145-0.0144-0.2914,0.0065-0.4265,0.061c-0.0767,0.0833-0.1202,0.1918-0.1225,0.305c0,0.1831,0.061,0.2441,0.2442,0.3046
	c0.1151,0.0498,0.2406,0.0709,0.3658,0.0612h0.5487c0.2214-0.0056,0.4421,0.0274,0.6523,0.0976
	c0.4332,0.1504,0.7565,0.5158,0.853,0.9641c0.0121,0.0722,0.0186,0.1454,0.019,0.2187c0.0095,0.3423-0.1228,0.6733-0.3659,0.9146
	H200.6255z"/>
</svg>
